<?xml version="1.0" standalone="no"?>
<!DOCTYPE svg PUBLIC "-//W3C//DTD SVG 20010904//EN"
 "http://www.w3.org/TR/2001/REC-SVG-20010904/DTD/svg10.dtd">
<svg version="1.0" xmlns="http://www.w3.org/2000/svg"
 width="900.000000pt" height="660.000000pt" viewBox="0 0 900.000000 660.000000"
 preserveAspectRatio="xMidYMid meet">

<g transform="translate(0.000000,660.000000) scale(0.100000,-0.100000)"
fill="#000000" stroke="none">
<path d="M3260 4803 c-206 -16 -429 -97 -618 -225 -95 -64 -113 -79 -192 -158
-77 -77 -92 -96 -175 -220 -53 -80 -147 -245 -144 -253 1 -1 -6 -20 -16 -42
-131 -305 -137 -687 -16 -984 121 -298 317 -477 641 -585 251 -84 482 -86 691
-5 101 39 158 85 247 197 39 50 80 93 92 97 11 3 20 10 20 14 0 5 12 11 28 15
29 6 90 59 118 101 10 16 26 25 42 25 14 0 34 7 44 16 16 16 21 16 60 1 39
-15 163 -35 213 -35 11 0 131 -2 267 -5 192 -4 251 -9 270 -20 12 -8 41 -17
62 -20 35 -6 42 -3 70 27 l31 33 140 8 c148 8 413 9 455 2 14 -3 42 -15 62
-27 22 -12 58 -22 86 -24 40 -2 63 -12 126 -54 88 -59 139 -77 190 -68 35 7
69 39 81 77 4 13 16 19 34 19 15 0 49 11 76 24 56 29 54 29 382 -40 363 -76
839 -150 1041 -161 l122 -6 0 310 c0 170 -3 312 -6 316 -7 7 -28 -12 -37 -33
-4 -12 -6 -11 -6 3 -1 21 -11 22 -36 3 -22 -16 -56 -10 -48 10 7 19 -21 28
-46 14 -14 -7 -21 -7 -21 0 0 5 -4 10 -10 10 -5 0 -10 -9 -10 -20 0 -21 -24
-28 -35 -10 -3 5 1 23 10 41 16 30 16 31 -5 24 -12 -4 -27 -1 -35 5 -12 10
-15 8 -15 -11 0 -19 -2 -21 -9 -9 -6 8 -8 17 -5 21 2 4 0 10 -6 14 -5 3 -10
-1 -10 -10 0 -9 -6 -23 -14 -30 -12 -12 -15 -11 -20 11 -4 15 -5 29 -1 32 3 3
5 -2 5 -11 0 -10 5 -17 11 -17 6 0 8 9 4 20 -5 16 -2 20 19 20 13 0 31 3 40 6
11 4 16 1 16 -10 0 -9 5 -16 10 -16 6 0 10 6 10 13 0 17 -38 39 -53 30 -6 -4
-29 -6 -50 -4 -26 2 -37 -1 -33 -8 5 -7 -3 -9 -24 -5 -19 4 -30 2 -30 -5 0 -6
-7 -11 -16 -11 -8 0 -13 4 -10 9 4 5 0 12 -6 15 -8 3 -7 5 2 3 9 -1 18 2 20 7
3 5 -5 10 -17 11 -13 1 -23 -5 -26 -17 -4 -12 -11 -16 -22 -12 -14 6 -16 3
-10 -14 3 -12 3 -22 -2 -22 -5 0 -10 12 -11 26 -2 33 -11 46 -23 38 -6 -4 -5
-11 2 -20 9 -11 9 -18 1 -26 -9 -9 -12 -9 -12 1 0 21 -32 40 -51 31 -13 -8
-15 -5 -12 14 4 20 0 25 -27 31 -39 9 -52 -2 -26 -21 14 -10 16 -14 5 -14 -26
0 -37 15 -32 43 5 28 27 37 36 15 3 -8 6 -6 6 5 1 9 6 17 11 17 6 0 10 6 10
13 0 9 -12 13 -34 12 -19 0 -42 5 -52 12 -19 14 -21 11 32 28 8 3 12 9 9 15
-3 5 -1 10 5 10 6 0 9 4 5 9 -3 6 4 15 15 21 15 8 20 8 20 -1 0 -8 4 -8 15 1
9 7 19 10 22 6 4 -4 1 -11 -6 -16 -9 -5 -1 -8 23 -8 20 0 38 4 41 8 3 5 -3 6
-14 3 -10 -3 -22 1 -26 7 -5 8 3 10 31 6 21 -4 42 -12 46 -19 4 -6 8 -8 8 -3
0 5 7 3 15 -4 9 -7 14 -19 11 -26 -4 -11 -1 -11 13 -3 16 11 16 13 -6 35 -13
13 -26 24 -29 24 -3 0 -22 11 -42 25 -45 30 -72 32 -95 4 -10 -12 -25 -18 -35
-15 -9 3 -24 1 -32 -5 -12 -8 -9 -9 9 -4 17 5 21 4 16 -5 -8 -13 -54 -10 -71
5 -15 12 1 35 25 36 11 0 12 2 3 6 -7 3 -19 -1 -28 -8 -12 -10 -17 -9 -27 4
-15 20 -67 34 -67 18 0 -6 7 -11 15 -11 9 0 12 -6 9 -15 -4 -8 -2 -15 4 -15 6
0 12 6 15 13 2 6 8 8 13 4 12 -11 -17 -28 -38 -23 -27 6 -32 -13 -6 -23 15 -6
28 -5 37 3 11 8 15 8 18 -1 3 -7 14 -13 24 -13 11 0 18 -4 14 -9 -3 -6 5 -8
18 -5 16 2 24 -1 24 -10 0 -8 -13 -16 -28 -18 -15 -3 -26 -1 -23 3 2 4 0 10
-6 14 -5 3 -10 -1 -10 -10 0 -18 -28 -14 -67 11 -16 10 -24 11 -29 2 -4 -7 -3
-8 4 -4 7 4 12 2 12 -4 0 -6 15 -18 33 -26 l32 -15 -34 5 c-18 4 -38 6 -43 6
-5 0 -6 5 -3 10 3 6 -4 10 -17 10 -13 0 -34 3 -48 6 -24 5 -24 4 2 -8 37 -17
24 -35 -29 -40 -28 -2 -39 0 -33 6 14 14 12 23 -5 23 -8 0 -11 -5 -8 -11 3 -6
0 -5 -8 2 -12 11 -12 14 1 22 11 7 11 10 2 10 -7 0 -11 4 -8 9 3 4 27 7 53 5
53 -4 48 7 -12 27 -31 11 -35 14 -18 17 12 2 40 -6 62 -17 24 -13 42 -17 46
-11 3 6 5 10 3 11 -2 0 -12 2 -24 4 -31 6 -82 35 -62 35 9 0 28 -4 43 -10 25
-10 26 -9 21 29 -4 34 -2 38 14 34 11 -3 16 -11 13 -19 -11 -29 15 -13 32 20
11 20 24 32 32 29 7 -3 13 0 13 7 0 6 -4 8 -10 5 -5 -3 -10 -2 -10 4 0 5 12 8
28 7 15 -2 27 -9 27 -17 0 -8 -6 -13 -13 -11 -8 1 -11 -2 -7 -8 6 -10 -7 -14
-35 -10 -11 1 -12 -1 -4 -10 9 -9 17 -9 32 -1 25 13 35 14 27 2 -3 -5 -1 -12
4 -16 6 -3 8 4 6 15 -2 12 2 23 10 27 8 3 15 14 15 25 0 10 -3 17 -7 15 -5 -3
-14 1 -21 9 -17 18 -7 18 40 -3 37 -17 55 -41 21 -29 -15 5 -14 3 2 -10 20
-15 20 -15 1 -30 -14 -10 -16 -14 -5 -14 12 0 12 -2 0 -9 -8 -5 24 -8 80 -7
93 1 135 -8 109 -24 -9 -5 -9 -9 -1 -14 6 -4 11 -2 11 3 0 6 7 11 15 11 9 0
15 -9 15 -25 0 -14 5 -25 11 -25 5 0 8 4 4 9 -8 15 15 25 28 12 13 -13 31 -15
23 -2 -4 5 -3 11 1 14 5 2 2 2 -5 0 -8 -1 -23 4 -35 13 -21 15 -19 16 35 11
32 -3 60 -2 63 3 3 4 -1 8 -8 7 -50 -2 -97 5 -97 13 0 6 10 10 22 10 17 0 19
3 10 12 -8 8 -15 8 -25 0 -7 -6 -27 -11 -43 -11 -16 1 -65 2 -110 2 -79 2 -80
2 -63 21 16 17 21 17 36 5 16 -13 17 -12 4 4 -12 15 -10 17 23 17 22 0 36 -5
36 -12 0 -9 3 -8 10 2 8 12 14 12 45 -3 42 -20 62 -22 43 -4 -24 24 -129 49
-195 48 -18 -1 -33 4 -33 10 0 6 6 9 13 6 6 -2 22 0 35 4 13 5 21 5 18 0 -3
-5 1 -12 10 -15 22 -8 26 -8 19 4 -4 6 5 9 19 8 15 -1 26 -6 26 -10 0 -4 7 -8
17 -8 13 0 12 3 -6 19 l-21 19 24 6 c27 7 56 -1 56 -16 0 -5 5 -6 12 -2 8 5 5
13 -10 25 -12 9 -22 19 -22 22 0 9 50 -6 61 -19 8 -10 16 -11 30 -3 13 6 19 6
19 -1 0 -5 7 -10 15 -10 8 0 15 -5 15 -10 0 -6 -12 -8 -27 -4 l-28 6 29 -16
c31 -17 50 -21 42 -8 -2 4 4 14 16 21 11 7 17 8 13 2 -3 -6 -1 -11 4 -11 6 0
11 5 11 10 0 6 11 10 24 10 15 0 26 7 29 20 3 13 14 20 30 20 27 0 44 -15 28
-24 -5 -4 -11 -1 -13 5 -2 6 -11 7 -22 3 -19 -7 -19 -8 -1 -14 15 -5 11 -10
-21 -27 -28 -14 -46 -18 -62 -12 -17 6 -22 5 -22 -7 0 -8 6 -14 13 -13 6 1 23
0 37 -1 24 -2 24 -2 -5 -11 -16 -5 -35 -7 -41 -5 -6 2 -11 -2 -11 -9 0 -9 9
-10 31 -4 17 5 43 11 59 14 15 3 27 12 27 20 0 9 6 12 15 9 8 -4 13 -10 10
-14 -3 -5 4 -6 15 -3 11 3 20 9 20 14 0 13 21 11 53 -6 27 -14 28 -13 22 6 -7
20 -4 21 39 18 30 -3 46 0 46 7 0 7 -21 14 -50 16 -63 4 -74 0 -59 -18 8 -10
8 -14 0 -14 -6 0 -11 4 -11 9 0 15 -27 20 -60 11 -19 -5 -28 -5 -25 1 4 5 15
9 26 9 11 0 17 5 14 10 -9 14 8 13 23 -2 9 -9 12 -9 12 0 0 7 -6 12 -12 12 -8
0 -5 7 6 15 11 8 14 15 8 15 -7 0 -12 7 -12 15 0 7 -8 18 -17 24 -15 8 -16 12
-4 23 8 8 11 8 7 1 -7 -13 28 -28 44 -18 6 4 9 1 8 -7 -2 -7 8 -14 22 -16 43
-6 50 -25 8 -20 -21 2 -38 0 -38 -4 0 -5 25 -8 55 -7 l55 2 0 83 c0 70 -3 83
-17 87 -17 4 -17 5 0 6 15 1 17 14 17 119 l0 118 -82 -12 c-114 -17 -431 -86
-808 -175 -213 -51 -217 -51 -417 -56 l-202 -5 35 -43 c39 -49 54 -90 54 -155
0 -25 5 -65 11 -90 6 -25 12 -99 14 -165 1 -66 7 -149 12 -185 7 -41 7 -93 2
-140 -5 -41 -10 -83 -11 -92 -1 -10 -6 -18 -10 -18 -4 0 -8 -14 -8 -32 0 -17
-3 -29 -6 -25 -3 3 -19 -20 -35 -51 -19 -35 -50 -73 -82 -100 l-52 -44 -75 4
c-57 4 -88 11 -130 33 -37 20 -49 30 -37 33 9 2 14 8 11 14 -8 12 64 6 101 -8
13 -5 16 -4 11 4 -4 7 -3 12 3 12 5 0 13 -4 16 -10 12 -19 57 -10 100 19 38
26 44 27 49 13 3 -13 4 -12 4 3 -1 11 2 35 6 54 6 25 11 30 17 20 9 -14 10
-12 13 26 0 11 6 19 11 18 12 -2 11 146 0 204 -25 124 -33 231 -28 371 4 132
4 134 -26 195 -17 34 -36 71 -43 82 -7 11 -28 44 -47 75 -19 30 -41 61 -50 68
-34 28 -98 52 -138 52 -41 0 -42 -1 -33 -24 8 -22 30 -191 30 -235 0 -15 -10
-20 -51 -26 -28 -4 -52 -12 -54 -19 -2 -6 -6 -126 -10 -266 -7 -277 -11 -328
-26 -346 -22 -26 -87 11 -75 43 3 7 1 15 -4 18 -4 3 -7 -6 -5 -20 4 -42 -36
-56 -61 -22 l-16 22 6 -22 c4 -12 2 -24 -3 -27 -6 -4 -10 69 -10 196 -1 211
-9 364 -21 407 -9 36 -40 41 -301 48 l-227 6 -6 51 c-3 28 -6 74 -6 102 0 28
-3 66 -6 83 -6 30 -9 31 -56 31 -27 0 -62 -7 -78 -15 l-30 -16 0 33 c0 81 -24
119 -145 228 -273 247 -336 291 -539 375 -337 139 -709 210 -986 188z m67
-255 c-3 -8 -6 -5 -6 6 -1 11 2 17 5 13 3 -3 4 -12 1 -19z m-486 -611 c21 -20
27 -33 20 -41 -7 -9 -4 -17 9 -29 11 -9 20 -26 20 -37 0 -20 -1 -20 -32 -3
-18 9 -37 16 -43 14 -5 -1 -7 1 -3 5 4 4 -1 14 -11 23 -10 9 -18 23 -18 31 0
8 -2 20 -3 25 -12 48 19 54 61 12z m4786 -43 c-3 -3 -12 -4 -19 -1 -8 3 -5 6
6 6 11 1 17 -2 13 -5z m28 -23 c3 -5 2 -12 -3 -15 -5 -3 -9 1 -9 9 0 17 3 19
12 6z m-2712 -93 c3 -21 2 -36 -2 -34 -4 3 -8 22 -9 42 -4 48 4 42 11 -8z
m2797 11 c0 -14 -17 -10 -23 5 -4 10 -1 13 9 9 7 -3 14 -9 14 -14z m-245 -7
c-3 -3 -11 0 -18 7 -9 10 -8 11 6 5 10 -3 15 -9 12 -12z m-98 -46 c-2 -5 -10
-11 -18 -14 -11 -3 -11 -2 1 7 12 8 5 11 -30 12 -25 1 -35 4 -22 6 12 2 22 8
22 13 0 5 11 4 25 -2 14 -6 24 -16 22 -22z m60 28 c-3 -3 -12 -4 -19 -1 -8 3
-5 6 6 6 11 1 17 -2 13 -5z m120 -11 c5 3 9 -3 9 -14 0 -10 -4 -19 -8 -19 -4
0 -8 4 -8 10 0 5 -6 8 -12 6 -7 -1 -9 -1 -5 2 4 2 2 11 -5 20 -12 15 -11 16 4
4 9 -8 21 -11 25 -9z m177 6 c14 -7 23 -15 21 -20 -7 -10 -58 5 -63 19 -5 15
10 15 42 1z m-324 -20 c0 -6 -4 -7 -10 -4 -5 3 -10 11 -10 16 0 6 5 7 10 4 6
-3 10 -11 10 -16z m46 -28 c-3 -4 12 -6 32 -4 20 1 29 0 20 -3 -10 -3 -18 -9
-18 -14 0 -11 -50 -19 -72 -11 -16 6 -17 8 -3 28 9 13 22 20 30 17 8 -4 13 -9
11 -13z m169 -11 c-3 -5 -10 -10 -16 -10 -5 0 -9 5 -9 10 0 6 7 10 16 10 8 0
12 -4 9 -10z m-2655 -10 c0 -5 -4 -10 -10 -10 -5 0 -10 5 -10 10 0 6 5 10 10
10 6 0 10 -4 10 -10z m-14 -47 c-10 -10 -19 5 -10 18 6 11 8 11 12 0 2 -7 1
-15 -2 -18z m2118 18 c3 -5 -3 -11 -14 -14 -22 -6 -37 8 -18 16 20 8 26 8 32
-2z m-151 -51 c4 0 5 5 1 12 -4 7 -3 8 4 4 15 -9 15 -24 -1 -40 -14 -15 -60 1
-65 22 -2 10 3 9 20 -2 33 -23 44 -20 22 7 -10 12 -12 16 -4 10 8 -7 18 -13
23 -13z m217 -10 c0 -5 -4 -10 -10 -10 -5 0 -10 5 -10 10 0 6 5 10 10 10 6 0
10 -4 10 -10z m-298 -62 c-7 -7 -12 -8 -12 -2 0 14 12 26 19 19 2 -3 -1 -11
-7 -17z m-322 -2 c0 -3 -4 -8 -10 -11 -5 -3 -10 -1 -10 4 0 6 5 11 10 11 6 0
10 -2 10 -4z m250 -7 c0 -15 -18 -19 -23 -6 -3 8 1 14 9 14 8 0 14 -4 14 -8z
m45 1 c3 -5 -1 -10 -10 -10 -9 0 -13 5 -10 10 3 6 8 10 10 10 2 0 7 -4 10 -10z
m-375 -14 c0 -2 -7 -6 -15 -10 -8 -3 -15 -1 -15 4 0 6 7 10 15 10 8 0 15 -2
15 -4z m765 -27 c5 -5 -6 -9 -28 -9 -35 0 -45 8 -30 23 8 8 43 -1 58 -14z
m-602 -39 c-3 -3 -8 0 -10 7 -2 7 -12 9 -21 6 -15 -6 -15 -5 -3 10 13 16 14
16 26 0 8 -10 11 -20 8 -23z m-146 24 c-3 -3 -12 -4 -19 -1 -8 3 -5 6 6 6 11
1 17 -2 13 -5z m88 -4 c3 -5 -1 -10 -10 -10 -9 0 -13 5 -10 10 3 6 8 10 10 10
2 0 7 -4 10 -10z m195 -9 c0 -9 -69 -6 -78 4 -4 5 -1 5 6 1 6 -4 12 -3 12 2 0
5 14 7 30 4 17 -2 30 -7 30 -11z m-265 -11 c-3 -6 4 -10 17 -10 13 0 29 -5 36
-12 9 -9 12 -9 12 3 1 10 5 8 16 -6 8 -11 22 -20 31 -20 9 0 18 -6 20 -12 3
-8 -4 -13 -16 -13 -27 0 -27 -16 -1 -23 22 -6 40 17 40 51 0 22 34 35 59 23 9
-5 22 -6 29 -4 7 3 12 -5 12 -20 0 -14 7 -27 15 -31 20 -7 19 -26 -1 -26 -8 0
-12 4 -9 10 3 6 -1 7 -9 4 -9 -3 -14 -9 -12 -13 6 -9 -42 -6 -66 4 -11 4 -18
3 -18 -4 0 -6 -9 -11 -20 -11 -18 0 -25 -10 -21 -32 0 -4 -7 -4 -16 -1 -11 4
-13 8 -5 11 15 5 16 32 1 32 -7 0 -9 10 -7 25 7 32 -1 37 -38 25 l-29 -10 28
4 c20 2 27 -1 27 -14 0 -25 -28 -44 -61 -42 -22 2 -29 -2 -29 -15 0 -15 -2
-15 -9 -3 -6 8 -7 18 -5 22 10 16 -9 8 -22 -9 -7 -10 -14 -13 -14 -6 0 6 5 15
10 18 6 4 7 11 4 17 -4 6 -3 8 2 5 6 -3 16 -2 24 4 12 7 12 9 -3 9 -10 0 -16
4 -12 10 3 5 12 7 19 4 8 -3 17 -1 21 5 4 7 0 8 -11 4 -13 -5 -16 -3 -11 10 3
9 2 17 -3 17 -6 0 -10 -4 -10 -9 0 -6 -12 -23 -26 -38 l-27 -28 8 25 c4 14 12
28 17 31 5 3 6 13 3 22 -5 11 1 17 22 20 15 2 32 5 36 6 5 0 5 -3 2 -9z m458
-87 c-7 -2 -21 -2 -30 0 -10 3 -4 5 12 5 17 0 24 -2 18 -5z m123 -21 c-16 -2
-32 0 -37 5 -5 5 7 7 29 4 34 -5 35 -6 8 -9z m-342 -24 c-5 -8 -2 -9 12 -4 10
4 15 4 11 0 -4 -5 -26 -9 -48 -10 -43 -2 -42 11 1 19 14 2 26 5 28 6 2 0 0 -4
-4 -11z m303 -14 c-3 -3 -12 -4 -19 -1 -8 3 -5 6 6 6 11 1 17 -2 13 -5z m-10
-20 c-3 -3 -12 -4 -19 -1 -8 3 -5 6 6 6 11 1 17 -2 13 -5z m363 -114 c0 -5 -5
-10 -11 -10 -5 0 -7 5 -4 10 3 6 8 10 11 10 2 0 4 -4 4 -10z m245 -30 c3 -5 1
-10 -4 -10 -6 0 -11 5 -11 10 0 6 2 10 4 10 3 0 8 -4 11 -10z"/>
<path d="M6665 3390 c-3 -5 -1 -10 4 -10 6 0 11 5 11 10 0 6 -2 10 -4 10 -3 0
-8 -4 -11 -10z"/>
<path d="M7340 3650 c0 -5 5 -10 11 -10 5 0 7 5 4 10 -3 6 -8 10 -11 10 -2 0
-4 -4 -4 -10z"/>
<path d="M7410 3596 c0 -8 -6 -17 -12 -19 -8 -3 -6 -6 5 -6 11 -1 17 6 17 19
0 11 -2 20 -5 20 -3 0 -5 -6 -5 -14z"/>
<path d="M7348 3583 c7 -3 16 -2 19 1 4 3 -2 6 -13 5 -11 0 -14 -3 -6 -6z"/>
<path d="M7710 3575 c-33 -19 -21 -19 21 0 19 8 27 14 19 14 -8 0 -26 -6 -40
-14z"/>
<path d="M7415 3550 c3 -5 11 -10 16 -10 6 0 7 5 4 10 -3 6 -11 10 -16 10 -6
0 -7 -4 -4 -10z"/>
<path d="M6928 3503 c7 -3 16 -2 19 1 4 3 -2 6 -13 5 -11 0 -14 -3 -6 -6z"/>
<path d="M7718 3503 c7 -3 16 -2 19 1 4 3 -2 6 -13 5 -11 0 -14 -3 -6 -6z"/>
<path d="M6996 3437 c3 -10 9 -15 12 -12 3 3 0 11 -7 18 -10 9 -11 8 -5 -6z"/>
<path d="M7413 3443 c9 -2 25 -2 35 0 9 3 1 5 -18 5 -19 0 -27 -2 -17 -5z"/>
<path d="M7494 3425 c-16 -12 -17 -14 -3 -15 9 0 19 7 23 15 7 19 5 19 -20 0z"/>
<path d="M7346 3412 c-2 -4 4 -9 15 -9 10 -1 19 2 19 8 0 11 -27 12 -34 1z"/>
<path d="M7430 3410 c0 -5 -8 -10 -17 -12 -15 -3 -14 -6 6 -17 21 -12 23 -11
18 2 -4 10 0 17 11 19 16 3 16 4 0 10 -10 4 -18 3 -18 -2z"/>
<path d="M7470 3373 c-13 -15 -12 -16 4 -10 10 4 20 7 22 7 2 0 4 5 4 10 0 15
-13 12 -30 -7z"/>
<path d="M7155 3350 c3 -5 8 -10 11 -10 2 0 4 5 4 10 0 6 -5 10 -11 10 -5 0
-7 -4 -4 -10z"/>
<path d="M7220 3350 c0 -5 14 -10 32 -10 36 0 35 4 -4 14 -17 4 -28 2 -28 -4z"/>
<path d="M7440 3350 c0 -5 5 -10 11 -10 5 0 7 5 4 10 -3 6 -8 10 -11 10 -2 0
-4 -4 -4 -10z"/>
<path d="M7475 3340 c3 -5 12 -7 20 -3 21 7 19 13 -6 13 -11 0 -18 -4 -14 -10z"/>
<path d="M7172 3312 c4 -19 29 -23 35 -6 2 6 -6 14 -17 17 -16 4 -20 1 -18
-11z"/>
<path d="M7315 3320 c3 -5 8 -10 11 -10 2 0 4 5 4 10 0 6 -5 10 -11 10 -5 0
-7 -4 -4 -10z"/>
<path d="M7418 3323 c7 -3 16 -2 19 1 4 3 -2 6 -13 5 -11 0 -14 -3 -6 -6z"/>
<path d="M7225 3300 c3 -5 17 -10 31 -10 13 0 24 5 24 10 0 6 -14 10 -31 10
-17 0 -28 -4 -24 -10z"/>
<path d="M7380 3300 c8 -5 22 -9 30 -9 10 0 8 3 -5 9 -27 12 -43 12 -25 0z"/>
<path d="M7443 3295 c-8 -9 -9 -16 -3 -20 6 -3 13 1 16 10 9 21 2 26 -13 10z"/>
<path d="M7530 3300 c0 -5 5 -10 10 -10 6 0 10 5 10 10 0 6 -4 10 -10 10 -5 0
-10 -4 -10 -10z"/>
<path d="M7590 3210 c-8 -5 -11 -12 -7 -16 4 -4 13 -2 19 4 15 15 7 24 -12 12z"/>
</g>
</svg>
